<svg width="36" height="36" viewBox="0 0 77 78" fill="none" xmlns="http://www.w3.org/2000/svg">
<path d="M38.625 74.625C33.9467 74.625 29.3141 73.7035 24.9919 71.9132C20.6697 70.1229 16.7424 67.4988 13.4343 64.1907C10.1262 60.8826 7.50212 56.9553 5.71179 52.6331C3.92147 48.3109 3 43.6783 3 39C3 34.3217 3.92147 29.6891 5.71179 25.3669C7.50212 21.0447 10.1262 17.1174 13.4343 13.8093C16.7424 10.5012 20.6697 7.87711 24.9919 6.08679C29.3141 4.29647 33.9467 3.375 38.625 3.375C48.0733 3.375 57.1347 7.12834 63.8157 13.8093C70.4967 20.4903 74.25 29.5517 74.25 39C74.25 48.4483 70.4967 57.5097 63.8157 64.1907C57.1347 70.8717 48.0733 74.625 38.625 74.625Z" stroke="white" stroke-width="5" stroke-linecap="round" stroke-linejoin="round"/>
<path d="M30.7083 31.0833C28.7291 27.125 20.8124 27.125 18.8333 31.0833M58.4166 31.0833C56.4374 27.125 48.5208 27.125 46.5416 31.0833M48.5208 50.875C47.2308 52.1915 45.6911 53.2375 43.9919 53.9515C42.2927 54.6655 40.4681 55.0333 38.6249 55.0333C36.7818 55.0333 34.9571 54.6655 33.2579 53.9515C31.5587 53.2375 30.019 52.1915 28.7291 50.875" stroke="white" stroke-width="5" stroke-linecap="round" stroke-linejoin="round"/>
</svg>
