<svg width="36" height="36" viewBox="0 0 79 75" fill="none" xmlns="http://www.w3.org/2000/svg">
<path d="M39.2982 58.6538L59.3513 69.1951C59.444 69.2436 59.5484 69.2653 59.6528 69.2577C59.7571 69.2501 59.8573 69.2136 59.942 69.1523C60.0267 69.0909 60.0927 69.0071 60.1324 68.9104C60.1721 68.8136 60.1841 68.7077 60.167 68.6045L56.342 46.2732L72.5588 30.4613C72.633 30.3881 72.6854 30.2957 72.7101 30.1944C72.7349 30.0932 72.731 29.987 72.6989 29.8879C72.6668 29.7887 72.6078 29.7004 72.5284 29.6328C72.4491 29.5652 72.3525 29.521 72.2495 29.5051L49.8282 26.2426L39.8045 5.92509C39.7584 5.82998 39.6865 5.74978 39.597 5.69366C39.5074 5.63754 39.4039 5.60777 39.2982 5.60777C39.1926 5.60777 39.089 5.63754 38.9995 5.69366C38.91 5.74978 38.838 5.82998 38.792 5.92509L28.7682 26.2426L6.34697 29.5051C6.24395 29.521 6.14737 29.5652 6.06801 29.6328C5.98866 29.7004 5.92964 29.7887 5.89756 29.8879C5.86547 29.987 5.86157 30.0932 5.8863 30.1944C5.91103 30.2957 5.96341 30.3881 6.03759 30.4613L22.2545 46.2732L18.4238 68.6045C18.4067 68.7077 18.4187 68.8136 18.4584 68.9104C18.4982 69.0071 18.5641 69.0909 18.6488 69.1523C18.7336 69.2136 18.8337 69.2501 18.9381 69.2577C19.0424 69.2653 19.1468 69.2436 19.2395 69.1951L39.2982 58.6538ZM21.8607 74.1788C20.8386 74.7162 19.6865 74.9569 18.5348 74.8735C17.383 74.7902 16.2775 74.3862 15.3434 73.7073C14.4093 73.0284 13.6839 72.1016 13.2491 71.0318C12.8143 69.962 12.6876 68.7919 12.8832 67.6538L16.2132 48.2363L2.11697 34.4945C1.29061 33.6884 0.706224 32.6672 0.429889 31.5464C0.153554 30.4255 0.196286 29.2497 0.553254 28.1519C0.910222 27.0541 1.56719 26.078 2.44989 25.334C3.33258 24.5901 4.4058 24.1079 5.54822 23.942L25.0388 21.107L33.7576 3.44446C34.269 2.41036 35.0594 1.53983 36.0394 0.931184C37.0195 0.322534 38.1502 0 39.3038 0C40.4575 0 41.5882 0.322534 42.5682 0.931184C43.5483 1.53983 44.3387 2.41036 44.8501 3.44446L53.5688 21.107L73.0651 23.942C74.2075 24.1079 75.2807 24.5901 76.1634 25.334C77.0461 26.078 77.7031 27.0541 78.0601 28.1519C78.417 29.2497 78.4598 30.4255 78.1834 31.5464C77.9071 32.6672 77.3227 33.6884 76.4963 34.4945L62.3888 48.242L65.7188 67.6595C65.9145 68.7975 65.7878 69.9676 65.353 71.0374C64.9182 72.1072 64.1927 73.034 63.2586 73.7129C62.3245 74.3918 61.2191 74.7958 60.0673 74.8792C58.9156 74.9625 57.7635 74.7218 56.7413 74.1845L39.2982 65.0045L21.8607 74.1732V74.1788Z" fill="white"/>
</svg>
