<svg width="36" height="36" viewBox="0 0 77 91" fill="none" xmlns="http://www.w3.org/2000/svg">
<path d="M32 48.0096L23.5825 39.7524L19 44.2476L32 57L58 31.4952L53.4175 27L32 48.0096Z" fill="white"/>
<path d="M38.5 91L18.6853 80.4154C13.0365 77.4046 8.3127 72.9095 5.0208 67.4127C1.72891 61.9158 -0.00677941 55.6246 1.98999e-05 49.2143V7.42857C0.00171864 5.72413 0.678304 4.08999 1.88129 2.88476C3.08428 1.67954 4.7154 1.0017 6.41668 1H70.5833C72.2846 1.0017 73.9157 1.67954 75.1187 2.88476C76.3217 4.08999 76.9983 5.72413 77 7.42857V49.2143C77.0068 55.6246 75.2711 61.9158 71.9792 67.4127C68.6873 72.9095 63.9635 77.4046 58.3147 80.4154L38.5 91ZM6.41668 7.42857V49.2143C6.41136 54.4594 7.83189 59.6069 10.5258 64.1043C13.2197 68.6017 17.0853 72.2793 21.7076 74.7421L38.5 83.7132L55.2924 74.7454C59.9152 72.2822 63.7811 68.6042 66.475 64.1061C69.169 59.6081 70.5892 54.4599 70.5833 49.2143V7.42857H6.41668Z" fill="white"/>
</svg>
